<?xml version="1.0" encoding="UTF-8"?>
<svg width="226px" height="156px" viewBox="0 0 226 156" version="1.1" xmlns="http://www.w3.org/2000/svg" xmlns:xlink="http://www.w3.org/1999/xlink">
    <title>Image</title>
    <g id="Mobile" stroke="none" stroke-width="1" fill="none" fill-rule="evenodd">
        <g id="iPhone-11-Copy" transform="translate(-99.000000, -58.000000)">
            <g id="Image" transform="translate(99.000000, 58.000000)">
                <rect id="Rectangle" stroke="#000000" stroke-width="5" fill="#FFFFFF" x="2.5" y="2.5" width="221" height="151" rx="8"></rect>
                <g id="Group-4" transform="translate(3.000000, 72.000000)">
                    <path d="M80.5,3.52457109 L154.937775,77.5 L6.06222466,77.5 L80.5,3.52457109 Z" id="Triangle-Copy-3" stroke="#000000" stroke-width="5" fill="#000000"></path>
                    <polygon id="Triangle-Copy" fill="#FFFFFF" points="80.5 0 131.81875 51 29.18125 51"></polygon>
                    <g id="Group-2" transform="translate(25.000000, 26.000000)" fill="#000000">
                        <polygon id="Triangle" transform="translate(44.000000, 13.500000) rotate(20.000000) translate(-44.000000, -13.500000) " points="44 7 64 20 24 20"></polygon>
                        <polygon id="Triangle-Copy-5" transform="translate(48.000000, 22.500000) rotate(20.000000) translate(-48.000000, -22.500000) " points="48 16 68 29 28 29"></polygon>
                        <polygon id="Triangle-Copy-2" transform="translate(22.000000, 17.500000) rotate(-20.000000) translate(-22.000000, -17.500000) " points="22 11 42 24 2 24"></polygon>
                        <polygon id="Triangle-Copy-4" transform="translate(31.000000, 23.500000) scale(-1, -1) rotate(-20.000000) translate(-31.000000, -23.500000) " points="31 17 51 30 11 30"></polygon>
                    </g>
                    <g id="Group-2-Copy" transform="translate(102.000000, 44.500000) scale(-1, 1) translate(-102.000000, -44.500000) translate(67.000000, 26.000000)" fill="#000000">
                        <polygon id="Triangle" transform="translate(44.000000, 13.500000) rotate(20.000000) translate(-44.000000, -13.500000) " points="44 7 64 20 24 20"></polygon>
                        <polygon id="Triangle-Copy-5" transform="translate(48.000000, 22.500000) rotate(20.000000) translate(-48.000000, -22.500000) " points="48 16 68 29 28 29"></polygon>
                        <polygon id="Triangle-Copy-2" transform="translate(22.000000, 17.500000) rotate(-20.000000) translate(-22.000000, -17.500000) " points="22 11 42 24 2 24"></polygon>
                        <polygon id="Triangle-Copy-4" transform="translate(31.000000, 23.500000) scale(-1, -1) rotate(-20.000000) translate(-31.000000, -23.500000) " points="31 17 51 30 11 30"></polygon>
                    </g>
                    <path d="M80.5,3.52457109 L154.937775,77.5 L6.06222466,77.5 L80.5,3.52457109 Z" id="Triangle" stroke="#000000" stroke-width="5"></path>
                </g>
                <g id="Group-4-Copy" transform="translate(113.000000, 98.000000)">
                    <path d="M54.5,3.51935323 L102.924912,51.5 L6.07508798,51.5 L54.5,3.51935323 Z" id="Triangle-Copy-3" stroke="#000000" stroke-width="5" fill="#000000"></path>
                    <polygon id="Triangle-Copy" fill="#FFFFFF" points="54.5 0 89 34 20 34"></polygon>
                    <g id="Group-2" transform="translate(17.000000, 18.000000)" fill="#000000">
                        <polygon id="Triangle" transform="translate(29.546526, 9.137483) rotate(20.000000) translate(-29.546526, -9.137483) " points="29.5287811 4.73517041 42.9850337 13.5397954 16.1080182 13.4851957"></polygon>
                        <polygon id="Triangle-Copy-5" transform="translate(32.232240, 15.218564) rotate(20.000000) translate(-32.232240, -15.218564) " points="32.2144953 10.8162515 45.670748 19.6208765 18.7937325 19.5662768"></polygon>
                        <polygon id="Triangle-Copy-2" transform="translate(14.767760, 11.840186) rotate(-20.000000) translate(-14.767760, -11.840186) " points="14.7855047 7.43787311 28.2062675 16.1878984 1.32925198 16.2424981"></polygon>
                        <polygon id="Triangle-Copy-4" transform="translate(20.817955, 15.862517) scale(-1, -1) rotate(-20.000000) translate(-20.817955, -15.862517) " points="20.8356995 11.4602046 34.2564623 20.2102299 7.37944678 20.2648296"></polygon>
                    </g>
                    <g id="Group-2-Copy" transform="translate(69.500000, 30.500000) scale(-1, 1) translate(-69.500000, -30.500000) translate(46.000000, 18.000000)" fill="#000000">
                        <polygon id="Triangle" transform="translate(29.546526, 9.137483) rotate(20.000000) translate(-29.546526, -9.137483) " points="29.5287811 4.73517041 42.9850337 13.5397954 16.1080182 13.4851957"></polygon>
                        <polygon id="Triangle-Copy-5" transform="translate(32.232240, 15.218564) rotate(20.000000) translate(-32.232240, -15.218564) " points="32.2144953 10.8162515 45.670748 19.6208765 18.7937325 19.5662768"></polygon>
                        <polygon id="Triangle-Copy-2" transform="translate(14.767760, 11.840186) rotate(-20.000000) translate(-14.767760, -11.840186) " points="14.7855047 7.43787311 28.2062675 16.1878984 1.32925198 16.2424981"></polygon>
                        <polygon id="Triangle-Copy-4" transform="translate(20.817955, 15.862517) scale(-1, -1) rotate(-20.000000) translate(-20.817955, -15.862517) " points="20.8356995 11.4602046 34.2564623 20.2102299 7.37944678 20.2648296"></polygon>
                    </g>
                    <path d="M54.5,3.51935323 L102.924912,51.5 L6.07508798,51.5 L54.5,3.51935323 Z" id="Triangle" stroke="#000000" stroke-width="5"></path>
                </g>
                <circle id="Oval" fill="#000000" cx="153" cy="52" r="17"></circle>
            </g>
        </g>
    </g>
</svg>